<svg xmlns="http://www.w3.org/2000/svg" width="838.001" height="313.002" shape-rendering="crispEdges" viewBox="0 0 221.721 82.815"><path fill="#FFF" d="M0 0h221.721v82.815H0z"/><path d="M0 0h3.309v63.608H0zm4.964 0h1.655v63.608H4.964zm4.964 0h1.655v63.608H9.928zm8.273 0h3.309v63.608h-3.309zm4.964 0h4.964v63.608h-4.964zm6.618 0h1.655v63.608h-1.655zm6.619 0h1.655v63.608h-1.655zm4.964 0h3.309v63.608h-3.309zm9.928 0h1.655v63.608h-1.655zm3.309 0h1.655v63.608h-1.655zm6.618 0h6.619v63.608h-6.619zm8.274 0h1.655v63.608h-1.655zm3.309 0h1.655v63.608h-1.655zm3.309 0h1.655v63.608h-1.655zm4.964 0h6.619v63.608h-6.619zm9.928 0h1.655v63.608h-1.655zm6.618 0h3.309v63.608h-3.309zm4.964 0h4.964v63.608h-4.964zm6.619 0h1.655v63.608h-1.655zm8.273 0h3.309v63.608h-3.309zm4.964 0h1.655v63.608h-1.655zm4.964 0h3.309v63.608h-3.309zm9.928 0h1.655v63.608h-1.655zm3.309 0h1.655v63.608h-1.655zm4.964 0h3.309v63.608h-3.309zm9.928 0h1.655v63.608h-1.655zm4.964 0h1.655v63.608H160.5zm3.309 0h1.655v63.608h-1.655zm4.964 0h1.655v63.608h-1.655zm4.964 0h6.619v63.608h-6.619zm8.273 0h6.619v63.608h-6.619zm8.273 0h1.655v63.608h-1.655zm3.309 0h4.964v63.608h-4.964zm6.619 0h3.309v63.608h-3.309zm8.273 0h4.964v63.608h-4.964zm6.618 0h1.655v63.608h-1.655zm3.31 0h3.309v63.608h-3.309z"/><text x="110.861" y="79.214" font-family="Arial" font-size="17.286" text-anchor="middle" transform="rotate(360 110.86 79.214)">ShopLinkr</text></svg>