<svg width="101" height="25" viewBox="0 0 101 25" fill="none" xmlns="http://www.w3.org/2000/svg">
<path d="M33.4429 15.9545H39.5109V18.6976H29.5371V16.0022L35.4826 8.22678H29.562V5.48438H39.4381V8.1797L33.4429 15.9545Z" fill="#424242"/>
<path d="M40.924 3.35133C40.5222 2.97783 40.3223 2.51271 40.3223 1.95595C40.3223 1.39984 40.5228 0.934709 40.924 0.560571C41.3251 0.187069 41.8285 0 42.4347 0C43.0404 0 43.5444 0.187069 43.9455 0.560571C44.3467 0.934073 44.5472 1.3992 44.5472 1.95595C44.5472 2.51271 44.3467 2.97783 43.9455 3.35133C43.5437 3.72484 43.0404 3.91191 42.4347 3.91191C41.8285 3.91191 41.3251 3.72547 40.924 3.35133ZM44.1297 5.48608V18.6993H40.69V5.48608H44.1297Z" fill="#424242"/>
<path d="M57.5197 6.79161C58.5186 7.78549 59.018 9.1726 59.018 10.9536V18.7049H55.5783V11.4066C55.5783 10.3574 55.3082 9.55056 54.7675 8.98554C54.2267 8.42115 53.49 8.13863 52.556 8.13863C51.6063 8.13863 50.8565 8.42115 50.3079 8.98554C49.7586 9.54992 49.4847 10.3567 49.4847 11.4066V18.7049H46.0449V5.49167H49.4847V7.13711C49.9428 6.56445 50.5288 6.11587 51.2412 5.78945C51.9537 5.46367 52.7356 5.30078 53.5877 5.30078C55.2099 5.30078 56.5201 5.79772 57.5197 6.79161Z" fill="#424242"/>
<path d="M73.3629 13.0973H63.4127C63.4946 14.0511 63.8381 14.7987 64.4444 15.3389C65.05 15.8797 65.7959 16.1495 66.6801 16.1495C67.9575 16.1495 68.8666 15.617 69.4073 14.5518H73.1171C72.7239 15.8238 71.9708 16.8692 70.8572 17.6881C69.7429 18.507 68.3757 18.9161 66.7541 18.9161C65.4433 18.9161 64.2687 18.6342 63.2285 18.0692C62.1884 17.5048 61.3776 16.7063 60.7962 15.6723C60.2148 14.639 59.9238 13.4466 59.9238 12.0945C59.9238 10.7271 60.2103 9.52703 60.7838 8.49306C61.3566 7.45973 62.1595 6.66501 63.1912 6.10825C64.2228 5.55214 65.4105 5.27344 66.7535 5.27344C68.0473 5.27344 69.2061 5.54386 70.2299 6.08407C71.2531 6.62492 72.0481 7.39228 72.6131 8.38553C73.1781 9.37941 73.4606 10.5203 73.4606 11.8081C73.4612 12.2866 73.4285 12.7155 73.3629 13.0973ZM69.8989 10.8556C69.8825 9.99725 69.5633 9.30942 68.9407 8.79275C68.318 8.27609 67.5564 8.01775 66.6558 8.01775C65.8038 8.01775 65.0874 8.26845 64.506 8.76921C63.9246 9.26997 63.5681 9.96607 63.4376 10.8562H69.8989V10.8556Z" fill="#424242"/>
<path d="M79.7645 5.88173C80.5425 5.47641 81.4306 5.27344 82.4302 5.27344C83.5929 5.27344 84.6449 5.55213 85.5874 6.10825C86.5293 6.665 87.2745 7.45591 87.8231 8.48161C88.3717 9.50731 88.6463 10.6959 88.6463 12.0474C88.6463 13.3989 88.3717 14.5957 87.8231 15.6367C87.2738 16.6783 86.5293 17.4851 85.5874 18.0578C84.6456 18.6304 83.5929 18.9161 82.4302 18.9161C81.4306 18.9161 80.551 18.717 79.7888 18.3199C79.0271 17.9229 78.4091 17.4221 77.9339 16.8176V24.9984H74.4941V5.4885H77.9339V7.39673C78.3763 6.79226 78.9865 6.28768 79.7645 5.88173ZM84.6292 9.98389C84.2936 9.40359 83.8512 8.96265 83.3026 8.66041C82.7533 8.35881 82.1601 8.20737 81.5211 8.20737C80.8984 8.20737 80.3131 8.36263 79.7645 8.6725C79.2153 8.98237 78.7735 9.43223 78.4379 10.0202C78.1023 10.6087 77.9339 11.3004 77.9339 12.0951C77.9339 12.8905 78.1017 13.5821 78.4379 14.17C78.7735 14.7586 79.2153 15.2072 79.7645 15.5177C80.3131 15.8276 80.8984 15.9828 81.5211 15.9828C82.1601 15.9828 82.7533 15.8238 83.3026 15.5056C83.8512 15.1875 84.2936 14.7344 84.6292 14.1459C84.9647 13.5579 85.1325 12.858 85.1325 12.0467C85.1325 11.2526 84.9647 10.5648 84.6292 9.98389Z" fill="#424242"/>
<path d="M91.8896 18.3326C91.0054 17.9432 90.3047 17.4145 89.7889 16.7464C89.2731 16.0789 88.9906 15.3389 88.9414 14.5283H92.4054C92.4703 15.0373 92.7285 15.4585 93.1795 15.7926C93.6298 16.1266 94.1908 16.2933 94.8626 16.2933C95.5174 16.2933 96.0293 16.1661 96.3983 15.9116C96.7667 15.6577 96.9508 15.3313 96.9508 14.9336C96.9508 14.5041 96.7254 14.1821 96.2751 13.9677C95.8242 13.7533 95.1084 13.5185 94.1253 13.264C93.1093 13.0254 92.2782 12.7791 91.6313 12.5246C90.9844 12.2707 90.4273 11.8807 89.9606 11.3557C89.4939 10.8308 89.2606 10.1239 89.2606 9.23307C89.2606 8.50197 89.4776 7.83387 89.9115 7.22939C90.3454 6.62556 90.968 6.14834 91.7788 5.79838C92.5896 5.44905 93.5432 5.27344 94.6411 5.27344C96.2626 5.27344 97.5565 5.66667 98.5226 6.45376C99.4887 7.24085 100.021 8.30218 100.119 9.63775H96.827C96.7778 9.11281 96.5523 8.6954 96.1512 8.38553C95.7494 8.07566 95.2133 7.9204 94.5421 7.9204C93.9194 7.9204 93.4403 8.03175 93.1047 8.25446C92.7692 8.47716 92.6007 8.78767 92.6007 9.18471C92.6007 9.63011 92.8301 9.96798 93.2889 10.1983C93.7471 10.4293 94.4595 10.6634 95.4263 10.9021C96.4088 11.1407 97.2196 11.3875 97.8586 11.6414C98.4977 11.8959 99.0502 12.2898 99.5169 12.8217C99.9836 13.3549 100.225 14.058 100.242 14.9323C100.242 15.6952 100.024 16.3792 99.5909 16.9837C99.157 17.5882 98.5344 18.0609 97.7236 18.4026C96.9128 18.7443 95.967 18.9155 94.8862 18.9155C93.7726 18.9168 92.7737 18.7221 91.8896 18.3326Z" fill="#424242"/>
<path d="M15.5958 16.7477C15.5204 16.8209 15.354 16.7971 15.1167 16.6919C14.3808 16.3695 12.9646 15.2683 11.4775 13.8259C9.97816 12.3703 8.83928 10.9861 8.51683 10.2768C8.41494 10.0539 8.3943 9.89802 8.46717 9.82728C8.7735 9.5299 10.6166 10.839 12.5855 12.7497C14.5537 14.661 15.9021 16.4503 15.5958 16.7477Z" fill="#72C8B9"/>
<path d="M6.7769 21.009L5.95854 20.2077C6.30871 19.8708 6.695 19.4996 7.06646 19.1446C8.17051 18.0916 9.64474 17.7955 11.6658 17.6596C11.7381 17.654 11.8116 17.6484 11.8844 17.6396C12.1669 17.6052 12.4371 17.5407 12.688 17.448C13.0678 17.3084 13.5715 17.0768 14.0648 16.7062C13.2542 16.1734 12.1824 15.2819 11.0777 14.2101C9.96525 13.1302 9.04305 12.0846 8.49554 11.2958C8.11248 11.776 7.87258 12.2649 7.72941 12.6331C7.63848 12.8672 7.57335 13.1195 7.53659 13.3831C7.52627 13.4632 7.51788 13.5496 7.51015 13.6354C7.40116 15.1648 7.18318 16.9046 5.98111 18.0922C5.64189 18.4272 5.28849 18.774 4.96153 19.0939L4.13672 18.2995C4.46239 17.9808 4.81515 17.6346 5.15307 17.3015C5.98691 16.4777 6.23003 15.2556 6.35192 13.5502C6.36159 13.4407 6.37127 13.3393 6.38481 13.2385C6.43382 12.8847 6.52088 12.5485 6.64277 12.2349C6.8846 11.6145 7.3515 10.713 8.20211 9.93791C8.33948 9.8127 8.53101 9.76011 8.71545 9.79642C8.89989 9.83273 9.05531 9.95419 9.1314 10.1213C9.36872 10.6428 10.3361 11.8956 11.8999 13.4131C13.4599 14.9263 14.7213 15.8503 15.2792 16.0945C15.4501 16.1696 15.5732 16.3199 15.61 16.4989C15.6467 16.678 15.5919 16.8627 15.4629 16.9954C14.6652 17.818 13.7379 18.2694 13.1001 18.5036C12.7641 18.6275 12.4036 18.7139 12.0302 18.759C11.9399 18.7702 11.849 18.7771 11.7593 18.7847C11.7574 18.7847 11.7484 18.7853 11.7464 18.7859C9.98975 18.9042 8.73093 19.1396 7.8816 19.9497C7.51144 20.3028 7.12579 20.6728 6.7769 21.009Z" fill="#72C8B9"/>
<path d="M12.8463 24.9538C10.0159 24.9538 7.17578 24.0448 4.81419 22.2004L4.30859 21.8054L4.92124 21.2137C5.14308 20.999 5.52679 20.6284 5.9679 20.2033L6.78627 21.0046C6.51477 21.2663 6.26455 21.5074 6.06141 21.704C10.6775 24.9206 17.0362 24.4467 21.1054 20.4957C25.1753 16.5459 25.6642 10.3737 22.3501 5.89239C22.038 6.19665 21.633 6.59231 21.2125 7.00488L20.3857 6.21167C20.9642 5.64384 21.5143 5.10795 21.8329 4.79742L22.4546 4.19141L22.8615 4.68223C26.9739 9.64431 26.5722 16.7857 21.927 21.2933C19.4281 23.7198 16.1436 24.9538 12.8463 24.9538Z" fill="#72C8B9"/>
<path d="M16.9847 15.2729C16.8589 15.2729 16.7332 15.2335 16.628 15.154C15.475 14.2831 14.2407 13.2157 13.0586 12.0675C11.9648 11.0064 10.9337 9.89264 10.0772 8.84713C9.90505 8.63678 9.90956 8.3369 10.0888 8.13156C10.9201 7.17808 11.9429 6.66534 12.6549 6.4024C12.996 6.27719 13.3559 6.19143 13.7254 6.14635C13.8241 6.13571 13.9131 6.12757 14.004 6.12005C15.7665 6.00173 17.0259 5.76571 17.8746 4.9556C18.0616 4.77717 18.2525 4.59437 18.4402 4.41406L19.2573 5.21666C19.0683 5.39759 18.8768 5.58102 18.6891 5.7607C17.4658 6.92766 15.6736 7.13927 14.0898 7.2457C14.0175 7.25133 13.9401 7.25884 13.8615 7.26698C13.5906 7.30016 13.3204 7.36464 13.0663 7.45792C12.5749 7.63948 11.9029 7.96503 11.3019 8.52409C12.0641 9.42498 12.9477 10.3666 13.8795 11.27C14.8952 12.2566 15.9477 13.18 16.9486 13.9626C17.5115 13.3841 17.8404 12.7412 18.0242 12.271C18.1145 12.0387 18.1803 11.7852 18.2183 11.5191C18.228 11.4452 18.2364 11.3614 18.2422 11.2775C18.3841 9.31417 18.6891 7.88301 19.7732 6.81247C19.9737 6.61401 20.1801 6.41117 20.3826 6.21271L21.2087 7.00592C21.0069 7.20375 20.8018 7.40596 20.6019 7.60317C19.7687 8.42643 19.5249 9.64911 19.4017 11.3557C19.3946 11.4603 19.3837 11.5661 19.3701 11.6681C19.3192 12.0243 19.2321 12.3593 19.1109 12.6704C18.7285 13.6483 18.1236 14.5004 17.3626 15.1364C17.2555 15.2272 17.1201 15.2729 16.9847 15.2729Z" fill="#72C8B9"/>
<path d="M3.24066 20.7726L2.83502 20.283C-1.27616 15.3222 -0.874393 8.18083 3.76947 3.672C8.41527 -0.837449 15.7715 -1.22748 20.8823 2.76485L21.3866 3.15864L20.9287 3.60313C20.6637 3.86044 19.9801 4.52155 19.2552 5.21647L18.4382 4.41387C18.8819 3.98816 19.3101 3.57559 19.6357 3.26069C15.0202 0.0434056 8.66162 0.517326 4.59106 4.46896C0.522445 8.41998 0.0342596 14.5929 3.34707 19.0729C3.56826 18.8575 3.84428 18.5883 4.14222 18.2966L4.96703 19.091C4.36793 19.6776 3.85911 20.1716 3.69853 20.3275L3.24066 20.7726Z" fill="#72C8B9"/>
</svg>
