<?xml version="1.0" encoding="UTF-8" standalone="no"?><!DOCTYPE svg PUBLIC "-//W3C//DTD SVG 1.1//EN" "http://www.w3.org/Graphics/SVG/1.1/DTD/svg11.dtd"><svg width="100%" height="100%" viewBox="0 0 500 79" version="1.1" xmlns="http://www.w3.org/2000/svg" xmlns:xlink="http://www.w3.org/1999/xlink" xml:space="preserve" xmlns:serif="http://www.serif.com/" style="fill-rule:evenodd;clip-rule:evenodd;stroke-linejoin:round;stroke-miterlimit:2;"><g id="Logo-White" serif:id="Logo White"><g id="Logotype-White" serif:id="Logotype White"><path d="M99.056,64.02c-4.435,-0 -8.74,-0.548 -12.914,-1.644c-4.174,-1.096 -7.565,-2.557 -10.174,-4.383l5.087,-11.426c2.452,1.617 5.296,2.922 8.531,3.913c3.235,0.991 6.417,1.487 9.548,1.487c5.948,0 8.922,-1.487 8.922,-4.461c-0,-1.565 -0.848,-2.726 -2.544,-3.483c-1.695,-0.756 -4.422,-1.552 -8.178,-2.387c-4.122,-0.887 -7.566,-1.839 -10.331,-2.856c-2.765,-1.018 -5.139,-2.648 -7.122,-4.892c-1.983,-2.243 -2.974,-5.27 -2.974,-9.078c0,-3.34 0.913,-6.353 2.739,-9.04c1.826,-2.687 4.553,-4.813 8.179,-6.378c3.626,-1.566 8.074,-2.348 13.344,-2.348c3.6,-0 7.148,0.404 10.644,1.213c3.495,0.809 6.574,1.996 9.235,3.561l-4.774,11.505c-5.218,-2.818 -10.279,-4.227 -15.184,-4.227c-3.078,0 -5.321,0.457 -6.73,1.37c-1.409,0.913 -2.113,2.1 -2.113,3.561c-0,1.461 0.834,2.557 2.504,3.287c1.67,0.73 4.357,1.487 8.061,2.27c4.174,0.887 7.631,1.839 10.37,2.856c2.739,1.018 5.113,2.635 7.122,4.853c2.009,2.217 3.013,5.23 3.013,9.039c0,3.287 -0.913,6.261 -2.739,8.922c-1.826,2.661 -4.565,4.787 -8.218,6.379c-3.652,1.591 -8.087,2.387 -13.304,2.387Z" style="fill:#fff;fill-rule:nonzero;"/><path d="M157.362,19.801c5.27,-0 9.509,1.565 12.718,4.696c3.209,3.13 4.813,7.852 4.813,14.165l0,24.262l-14.87,-0l-0,-21.836c-0,-5.791 -2.322,-8.687 -6.966,-8.687c-2.556,0 -4.604,0.835 -6.143,2.505c-1.539,1.669 -2.309,4.174 -2.309,7.513l0,20.505l-14.87,-0l-0,-58.072l14.87,0l0,19.566c1.617,-1.513 3.522,-2.661 5.713,-3.443c2.192,-0.783 4.54,-1.174 7.044,-1.174Z" style="fill:#fff;fill-rule:nonzero;"/><path d="M206.12,63.628c-4.539,0 -8.635,-0.939 -12.287,-2.817c-3.652,-1.879 -6.509,-4.487 -8.57,-7.827c-2.061,-3.339 -3.091,-7.122 -3.091,-11.348c-0,-4.174 1.03,-7.93 3.091,-11.27c2.061,-3.339 4.904,-5.935 8.531,-7.787c3.626,-1.852 7.735,-2.778 12.326,-2.778c4.592,-0 8.714,0.926 12.366,2.778c3.652,1.852 6.496,4.435 8.531,7.748c2.034,3.313 3.052,7.083 3.052,11.309c-0,4.226 -1.018,8.009 -3.052,11.348c-2.035,3.34 -4.879,5.948 -8.531,7.827c-3.652,1.878 -7.774,2.817 -12.366,2.817Zm0,-11.818c2.609,0 4.748,-0.9 6.418,-2.7c1.669,-1.8 2.504,-4.291 2.504,-7.474c0,-3.13 -0.835,-5.583 -2.504,-7.357c-1.67,-1.774 -3.809,-2.661 -6.418,-2.661c-2.609,0 -4.748,0.887 -6.417,2.661c-1.67,1.774 -2.505,4.227 -2.505,7.357c0,3.183 0.835,5.674 2.505,7.474c1.669,1.8 3.808,2.7 6.417,2.7Z" style="fill:#fff;fill-rule:nonzero;"/><path d="M263.644,19.801c3.861,-0 7.37,0.9 10.526,2.7c3.157,1.8 5.661,4.356 7.514,7.67c1.852,3.313 2.778,7.161 2.778,11.543c0,4.383 -0.926,8.231 -2.778,11.544c-1.853,3.314 -4.357,5.87 -7.514,7.67c-3.156,1.8 -6.665,2.7 -10.526,2.7c-4.957,0 -8.896,-1.487 -11.818,-4.461l0,18.94l-14.87,0l0,-57.602l14.166,0l-0,4.226c2.765,-3.287 6.939,-4.93 12.522,-4.93Zm-3.131,32.009c2.609,0 4.748,-0.9 6.418,-2.7c1.67,-1.8 2.504,-4.265 2.504,-7.396c0,-3.13 -0.834,-5.595 -2.504,-7.395c-1.67,-1.8 -3.809,-2.701 -6.418,-2.701c-2.608,0 -4.748,0.901 -6.417,2.701c-1.67,1.8 -2.505,4.265 -2.505,7.395c0,3.131 0.835,5.596 2.505,7.396c1.669,1.8 3.809,2.7 6.417,2.7Z" style="fill:#fff;fill-rule:nonzero;"/><path d="M292.054,8.139l15.496,0l-0,42.498l26.14,-0l-0,12.287l-41.636,-0l-0,-54.785Z" style="fill:#fff;fill-rule:nonzero;"/><path d="M339.09,20.505l14.87,0l0,42.419l-14.87,-0l0,-42.419Zm7.435,-4.696c-2.713,0 -4.904,-0.756 -6.574,-2.269c-1.67,-1.513 -2.504,-3.392 -2.504,-5.635c-0,-2.244 0.834,-4.122 2.504,-5.635c1.67,-1.513 3.861,-2.27 6.574,-2.27c2.713,-0 4.905,0.717 6.574,2.152c1.67,1.435 2.505,3.274 2.505,5.518c-0,2.348 -0.835,4.291 -2.505,5.83c-1.669,1.54 -3.861,2.309 -6.574,2.309Z" style="fill:#fff;fill-rule:nonzero;"/><path d="M391.214,19.801c5.269,-0 9.509,1.565 12.717,4.696c3.209,3.13 4.814,7.852 4.814,14.165l-0,24.262l-14.87,-0l-0,-21.836c-0,-5.791 -2.322,-8.687 -6.966,-8.687c-2.557,0 -4.604,0.835 -6.144,2.505c-1.539,1.669 -2.308,4.174 -2.308,7.513l-0,20.505l-14.87,-0l-0,-42.419l14.165,0l0,4.618c1.67,-1.722 3.653,-3.04 5.948,-3.953c2.296,-0.913 4.8,-1.369 7.514,-1.369Z" style="fill:#fff;fill-rule:nonzero;"/><path d="M437.311,48.054l-4.383,4.461l0,10.409l-14.87,-0l0,-58.072l14.87,0l0,30.445l15.183,-14.792l17.61,0l-17.61,18.157l19.097,24.262l-18.001,-0l-11.896,-14.87Z" style="fill:#fff;fill-rule:nonzero;"/><path d="M485.756,25.592c1.513,-1.93 3.483,-3.378 5.909,-4.343c2.426,-0.966 5.204,-1.448 8.335,-1.448l0,13.383c-1.357,-0.157 -2.478,-0.235 -3.365,-0.235c-3.183,-0 -5.674,0.861 -7.475,2.583c-1.8,1.721 -2.7,4.356 -2.7,7.904l0,19.488l-14.87,-0l0,-42.419l14.166,0l0,5.087Z" style="fill:#fff;fill-rule:nonzero;"/></g><g id="Logomark-White" serif:id="Logomark White"><rect x="0" y="26.036" width="18.992" height="18.992" style="fill:#fff;"/><rect x="18.992" y="7.044" width="18.992" height="18.992" style="fill:#fff;"/><rect x="0" y="45.028" width="18.992" height="18.992" style="fill:#fff;fill-opacity:0.75;"/><rect x="37.984" y="7.044" width="18.992" height="18.992" style="fill:#fff;fill-opacity:0.75;"/><rect x="18.992" y="45.028" width="18.992" height="18.992" style="fill:#fff;"/><rect x="37.984" y="26.036" width="18.992" height="18.992" style="fill:#fff;"/></g></g></svg>