<?xml version="1.0" encoding="UTF-8" standalone="no"?>
<!DOCTYPE svg PUBLIC "-//W3C//DTD SVG 1.1//EN" "http://www.w3.org/Graphics/SVG/1.1/DTD/svg11.dtd">
<svg width="100%" height="100%" viewBox="0 0 501 82" version="1.1" xmlns="http://www.w3.org/2000/svg" xmlns:xlink="http://www.w3.org/1999/xlink" xml:space="preserve" xmlns:serif="http://www.serif.com/" style="fill-rule:evenodd;clip-rule:evenodd;stroke-linejoin:round;stroke-miterlimit:2;">
    <g transform="matrix(1,0,0,1,-76,-606)">
        <g transform="matrix(1,0,0,1,-633.502,105.804)">
            <g id="Logo-Sunstone---Slogan-Charcoal" serif:id="Logo Sunstone + Slogan Charcoal">
                <g id="Slogan-Charcoal" serif:id="Slogan Charcoal" transform="matrix(0.341783,0,0,0.341783,784.732,403.811)">
                    <path d="M654.487,512.69C651.063,512.69 647.967,511.946 645.199,510.458C642.431,508.97 640.255,506.906 638.671,504.266C637.087,501.626 636.295,498.642 636.295,495.314C636.295,491.986 637.087,489.002 638.671,486.362C640.255,483.722 642.431,481.658 645.199,480.17C647.967,478.682 651.079,477.938 654.535,477.938C657.447,477.938 660.079,478.45 662.431,479.474C664.783,480.498 666.759,481.97 668.359,483.89L663.367,488.498C661.095,485.874 658.279,484.562 654.919,484.562C652.839,484.562 650.983,485.018 649.351,485.93C647.719,486.842 646.447,488.114 645.535,489.746C644.623,491.378 644.167,493.234 644.167,495.314C644.167,497.394 644.623,499.25 645.535,500.882C646.447,502.514 647.719,503.786 649.351,504.698C650.983,505.61 652.839,506.066 654.919,506.066C658.279,506.066 661.095,504.738 663.367,502.082L668.359,506.69C666.759,508.642 664.775,510.13 662.407,511.154C660.039,512.178 657.399,512.69 654.487,512.69Z" style="fill:rgb(25,25,25);fill-rule:nonzero;"/>
                    <path d="M684.439,512.498C681.719,512.498 679.279,511.93 677.119,510.794C674.959,509.658 673.271,508.082 672.055,506.066C670.839,504.05 670.231,501.762 670.231,499.202C670.231,496.642 670.839,494.354 672.055,492.338C673.271,490.322 674.959,488.746 677.119,487.61C679.279,486.474 681.719,485.906 684.439,485.906C687.159,485.906 689.591,486.474 691.735,487.61C693.879,488.746 695.559,490.322 696.775,492.338C697.991,494.354 698.599,496.642 698.599,499.202C698.599,501.762 697.991,504.05 696.775,506.066C695.559,508.082 693.879,509.658 691.735,510.794C689.591,511.93 687.159,512.498 684.439,512.498ZM684.439,506.354C686.359,506.354 687.935,505.706 689.167,504.41C690.399,503.114 691.015,501.378 691.015,499.202C691.015,497.026 690.399,495.29 689.167,493.994C687.935,492.698 686.359,492.05 684.439,492.05C682.519,492.05 680.935,492.698 679.687,493.994C678.439,495.29 677.815,497.026 677.815,499.202C677.815,501.378 678.439,503.114 679.687,504.41C680.935,505.706 682.519,506.354 684.439,506.354Z" style="fill:rgb(25,25,25);fill-rule:nonzero;"/>
                    <path d="M719.287,485.906C722.487,485.906 725.071,486.866 727.039,488.786C729.007,490.706 729.991,493.554 729.991,497.33L729.991,512.114L722.503,512.114L722.503,498.482C722.503,496.434 722.055,494.906 721.159,493.898C720.263,492.89 718.967,492.386 717.271,492.386C715.383,492.386 713.879,492.97 712.759,494.138C711.639,495.306 711.079,497.042 711.079,499.346L711.079,512.114L703.591,512.114L703.591,486.29L710.743,486.29L710.743,489.314C711.735,488.226 712.967,487.386 714.439,486.794C715.911,486.202 717.527,485.906 719.287,485.906Z" style="fill:rgb(25,25,25);fill-rule:nonzero;"/>
                    <path d="M752.455,485.906C755.655,485.906 758.239,486.866 760.207,488.786C762.175,490.706 763.159,493.554 763.159,497.33L763.159,512.114L755.671,512.114L755.671,498.482C755.671,496.434 755.223,494.906 754.327,493.898C753.431,492.89 752.135,492.386 750.439,492.386C748.551,492.386 747.047,492.97 745.927,494.138C744.807,495.306 744.247,497.042 744.247,499.346L744.247,512.114L736.759,512.114L736.759,486.29L743.911,486.29L743.911,489.314C744.903,488.226 746.135,487.386 747.607,486.794C749.079,486.202 750.695,485.906 752.455,485.906Z" style="fill:rgb(25,25,25);fill-rule:nonzero;"/>
                    <path d="M795.511,499.298C795.511,499.394 795.463,500.066 795.367,501.314L775.831,501.314C776.183,502.914 777.015,504.178 778.327,505.106C779.639,506.034 781.271,506.498 783.223,506.498C784.567,506.498 785.759,506.298 786.799,505.898C787.839,505.498 788.807,504.866 789.703,504.002L793.687,508.322C791.255,511.106 787.703,512.498 783.031,512.498C780.119,512.498 777.543,511.93 775.303,510.794C773.063,509.658 771.335,508.082 770.119,506.066C768.903,504.05 768.295,501.762 768.295,499.202C768.295,496.674 768.895,494.394 770.095,492.362C771.295,490.33 772.943,488.746 775.039,487.61C777.135,486.474 779.479,485.906 782.071,485.906C784.599,485.906 786.887,486.45 788.935,487.538C790.983,488.626 792.591,490.186 793.759,492.218C794.927,494.25 795.511,496.61 795.511,499.298ZM782.119,491.57C780.423,491.57 778.999,492.05 777.847,493.01C776.695,493.97 775.991,495.282 775.735,496.946L788.455,496.946C788.199,495.314 787.495,494.01 786.343,493.034C785.191,492.058 783.783,491.57 782.119,491.57Z" style="fill:rgb(25,25,25);fill-rule:nonzero;"/>
                    <path d="M812.983,512.498C810.231,512.498 807.759,511.93 805.567,510.794C803.375,509.658 801.663,508.082 800.431,506.066C799.199,504.05 798.583,501.762 798.583,499.202C798.583,496.642 799.199,494.354 800.431,492.338C801.663,490.322 803.375,488.746 805.567,487.61C807.759,486.474 810.231,485.906 812.983,485.906C815.703,485.906 818.079,486.474 820.111,487.61C822.143,488.746 823.623,490.37 824.551,492.482L818.743,495.602C817.399,493.234 815.463,492.05 812.935,492.05C810.983,492.05 809.367,492.69 808.087,493.97C806.807,495.25 806.167,496.994 806.167,499.202C806.167,501.41 806.807,503.154 808.087,504.434C809.367,505.714 810.983,506.354 812.935,506.354C815.495,506.354 817.431,505.17 818.743,502.802L824.551,505.97C823.623,508.018 822.143,509.618 820.111,510.77C818.079,511.922 815.703,512.498 812.983,512.498Z" style="fill:rgb(25,25,25);fill-rule:nonzero;"/>
                    <path d="M845.911,510.866C845.175,511.41 844.271,511.818 843.199,512.09C842.127,512.362 840.999,512.498 839.815,512.498C836.743,512.498 834.367,511.714 832.687,510.146C831.007,508.578 830.167,506.274 830.167,503.234L830.167,492.626L826.183,492.626L826.183,486.866L830.167,486.866L830.167,480.578L837.655,480.578L837.655,486.866L844.087,486.866L844.087,492.626L837.655,492.626L837.655,503.138C837.655,504.226 837.935,505.066 838.495,505.658C839.055,506.25 839.847,506.546 840.871,506.546C842.055,506.546 843.063,506.226 843.895,505.586L845.911,510.866Z" style="fill:rgb(25,25,25);fill-rule:nonzero;"/>
                    <path d="M853.447,512.498C852.135,512.498 851.031,512.05 850.135,511.154C849.239,510.258 848.791,509.138 848.791,507.794C848.791,506.418 849.239,505.306 850.135,504.458C851.031,503.61 852.135,503.186 853.447,503.186C854.759,503.186 855.863,503.61 856.759,504.458C857.655,505.306 858.103,506.418 858.103,507.794C858.103,509.138 857.655,510.258 856.759,511.154C855.863,512.05 854.759,512.498 853.447,512.498Z" style="fill:rgb(25,25,25);fill-rule:nonzero;"/>
                    <path d="M907.879,512.114L907.831,491.954L897.943,508.562L894.439,508.562L884.599,492.386L884.599,512.114L877.303,512.114L877.303,478.514L883.735,478.514L896.311,499.394L908.695,478.514L915.079,478.514L915.175,512.114L907.879,512.114Z" style="fill:rgb(25,25,25);fill-rule:nonzero;"/>
                    <path d="M933.031,485.906C937.031,485.906 940.103,486.858 942.247,488.762C944.391,490.666 945.463,493.538 945.463,497.378L945.463,512.114L938.455,512.114L938.455,508.898C937.047,511.298 934.423,512.498 930.583,512.498C928.599,512.498 926.879,512.162 925.423,511.49C923.967,510.818 922.855,509.89 922.087,508.706C921.319,507.522 920.935,506.178 920.935,504.674C920.935,502.274 921.839,500.386 923.647,499.01C925.455,497.634 928.247,496.946 932.023,496.946L937.975,496.946C937.975,495.314 937.479,494.058 936.487,493.178C935.495,492.298 934.007,491.858 932.023,491.858C930.647,491.858 929.295,492.074 927.967,492.506C926.639,492.938 925.511,493.522 924.583,494.258L921.895,489.026C923.303,488.034 924.991,487.266 926.959,486.722C928.927,486.178 930.951,485.906 933.031,485.906ZM932.455,507.458C933.735,507.458 934.871,507.162 935.863,506.57C936.855,505.978 937.559,505.106 937.975,503.954L937.975,501.314L932.839,501.314C929.767,501.314 928.231,502.322 928.231,504.338C928.231,505.298 928.607,506.058 929.359,506.618C930.111,507.178 931.143,507.458 932.455,507.458Z" style="fill:rgb(25,25,25);fill-rule:nonzero;"/>
                    <path d="M967.927,485.906C971.127,485.906 973.711,486.866 975.679,488.786C977.647,490.706 978.631,493.554 978.631,497.33L978.631,512.114L971.143,512.114L971.143,498.482C971.143,496.434 970.695,494.906 969.799,493.898C968.903,492.89 967.607,492.386 965.911,492.386C964.023,492.386 962.519,492.97 961.399,494.138C960.279,495.306 959.719,497.042 959.719,499.346L959.719,512.114L952.231,512.114L952.231,486.29L959.383,486.29L959.383,489.314C960.375,488.226 961.607,487.386 963.079,486.794C964.551,486.202 966.167,485.906 967.927,485.906Z" style="fill:rgb(25,25,25);fill-rule:nonzero;"/>
                    <path d="M995.815,485.906C999.815,485.906 1002.89,486.858 1005.03,488.762C1007.18,490.666 1008.25,493.538 1008.25,497.378L1008.25,512.114L1001.24,512.114L1001.24,508.898C999.831,511.298 997.207,512.498 993.367,512.498C991.383,512.498 989.663,512.162 988.207,511.49C986.751,510.818 985.639,509.89 984.871,508.706C984.103,507.522 983.719,506.178 983.719,504.674C983.719,502.274 984.623,500.386 986.431,499.01C988.239,497.634 991.031,496.946 994.807,496.946L1000.76,496.946C1000.76,495.314 1000.26,494.058 999.271,493.178C998.279,492.298 996.791,491.858 994.807,491.858C993.431,491.858 992.079,492.074 990.751,492.506C989.423,492.938 988.295,493.522 987.367,494.258L984.679,489.026C986.087,488.034 987.775,487.266 989.743,486.722C991.711,486.178 993.735,485.906 995.815,485.906ZM995.239,507.458C996.519,507.458 997.655,507.162 998.647,506.57C999.639,505.978 1000.34,505.106 1000.76,503.954L1000.76,501.314L995.623,501.314C992.551,501.314 991.015,502.322 991.015,504.338C991.015,505.298 991.391,506.058 992.143,506.618C992.895,507.178 993.927,507.458 995.239,507.458Z" style="fill:rgb(25,25,25);fill-rule:nonzero;"/>
                    <path d="M1041.94,486.29L1041.94,507.794C1041.94,512.53 1040.71,516.05 1038.25,518.354C1035.78,520.658 1032.18,521.81 1027.45,521.81C1024.95,521.81 1022.58,521.506 1020.34,520.898C1018.1,520.29 1016.25,519.41 1014.77,518.258L1017.75,512.882C1018.84,513.778 1020.22,514.49 1021.88,515.018C1023.54,515.546 1025.21,515.81 1026.87,515.81C1029.46,515.81 1031.38,515.226 1032.61,514.058C1033.84,512.89 1034.45,511.122 1034.45,508.754L1034.45,507.65C1032.5,509.794 1029.78,510.866 1026.3,510.866C1023.93,510.866 1021.76,510.346 1019.79,509.306C1017.82,508.266 1016.26,506.802 1015.11,504.914C1013.96,503.026 1013.38,500.85 1013.38,498.386C1013.38,495.922 1013.96,493.746 1015.11,491.858C1016.26,489.97 1017.82,488.506 1019.79,487.466C1021.76,486.426 1023.93,485.906 1026.3,485.906C1030.04,485.906 1032.89,487.138 1034.84,489.602L1034.84,486.29L1041.94,486.29ZM1027.78,504.722C1029.77,504.722 1031.39,504.138 1032.65,502.97C1033.92,501.802 1034.55,500.274 1034.55,498.386C1034.55,496.498 1033.92,494.97 1032.65,493.802C1031.39,492.634 1029.77,492.05 1027.78,492.05C1025.8,492.05 1024.17,492.634 1022.89,493.802C1021.61,494.97 1020.97,496.498 1020.97,498.386C1020.97,500.274 1021.61,501.802 1022.89,502.97C1024.17,504.138 1025.8,504.722 1027.78,504.722Z" style="fill:rgb(25,25,25);fill-rule:nonzero;"/>
                    <path d="M1074.2,499.298C1074.2,499.394 1074.15,500.066 1074.06,501.314L1054.52,501.314C1054.87,502.914 1055.7,504.178 1057.02,505.106C1058.33,506.034 1059.96,506.498 1061.91,506.498C1063.26,506.498 1064.45,506.298 1065.49,505.898C1066.53,505.498 1067.5,504.866 1068.39,504.002L1072.38,508.322C1069.94,511.106 1066.39,512.498 1061.72,512.498C1058.81,512.498 1056.23,511.93 1053.99,510.794C1051.75,509.658 1050.02,508.082 1048.81,506.066C1047.59,504.05 1046.98,501.762 1046.98,499.202C1046.98,496.674 1047.58,494.394 1048.78,492.362C1049.98,490.33 1051.63,488.746 1053.73,487.61C1055.82,486.474 1058.17,485.906 1060.76,485.906C1063.29,485.906 1065.58,486.45 1067.62,487.538C1069.67,488.626 1071.28,490.186 1072.45,492.218C1073.62,494.25 1074.2,496.61 1074.2,499.298ZM1060.81,491.57C1059.11,491.57 1057.69,492.05 1056.54,493.01C1055.38,493.97 1054.68,495.282 1054.42,496.946L1067.14,496.946C1066.89,495.314 1066.18,494.01 1065.03,493.034C1063.88,492.058 1062.47,491.57 1060.81,491.57Z" style="fill:rgb(25,25,25);fill-rule:nonzero;"/>
                    <path d="M1082.02,512.498C1080.71,512.498 1079.61,512.05 1078.71,511.154C1077.82,510.258 1077.37,509.138 1077.37,507.794C1077.37,506.418 1077.82,505.306 1078.71,504.458C1079.61,503.61 1080.71,503.186 1082.02,503.186C1083.34,503.186 1084.44,503.61 1085.34,504.458C1086.23,505.306 1086.68,506.418 1086.68,507.794C1086.68,509.138 1086.23,510.258 1085.34,511.154C1084.44,512.05 1083.34,512.498 1082.02,512.498Z" style="fill:rgb(25,25,25);fill-rule:nonzero;"/>
                    <path d="M1128.58,494.786L1135.69,494.786L1135.69,508.418C1133.86,509.794 1131.75,510.85 1129.35,511.586C1126.95,512.322 1124.54,512.69 1122.1,512.69C1118.62,512.69 1115.48,511.946 1112.69,510.458C1109.91,508.97 1107.73,506.906 1106.14,504.266C1104.56,501.626 1103.77,498.642 1103.77,495.314C1103.77,491.986 1104.56,489.002 1106.14,486.362C1107.73,483.722 1109.93,481.658 1112.74,480.17C1115.56,478.682 1118.73,477.938 1122.25,477.938C1125.19,477.938 1127.86,478.434 1130.26,479.426C1132.66,480.418 1134.68,481.858 1136.31,483.746L1131.32,488.354C1128.92,485.826 1126.02,484.562 1122.63,484.562C1120.49,484.562 1118.58,485.01 1116.92,485.906C1115.26,486.802 1113.96,488.066 1113.03,489.698C1112.1,491.33 1111.64,493.202 1111.64,495.314C1111.64,497.394 1112.1,499.25 1113.03,500.882C1113.96,502.514 1115.25,503.786 1116.89,504.698C1118.54,505.61 1120.42,506.066 1122.54,506.066C1124.78,506.066 1126.79,505.586 1128.58,504.626L1128.58,494.786Z" style="fill:rgb(25,25,25);fill-rule:nonzero;"/>
                    <path d="M1149.51,489.698C1150.41,488.45 1151.62,487.506 1153.13,486.866C1154.65,486.226 1156.41,485.906 1158.39,485.906L1158.39,492.818C1157.56,492.754 1157,492.722 1156.71,492.722C1154.57,492.722 1152.89,493.322 1151.67,494.522C1150.45,495.722 1149.85,497.522 1149.85,499.922L1149.85,512.114L1142.36,512.114L1142.36,486.29L1149.51,486.29L1149.51,489.698Z" style="fill:rgb(25,25,25);fill-rule:nonzero;"/>
                    <path d="M1174.9,512.498C1172.18,512.498 1169.74,511.93 1167.58,510.794C1165.42,509.658 1163.74,508.082 1162.52,506.066C1161.3,504.05 1160.69,501.762 1160.69,499.202C1160.69,496.642 1161.3,494.354 1162.52,492.338C1163.74,490.322 1165.42,488.746 1167.58,487.61C1169.74,486.474 1172.18,485.906 1174.9,485.906C1177.62,485.906 1180.06,486.474 1182.2,487.61C1184.34,488.746 1186.02,490.322 1187.24,492.338C1188.45,494.354 1189.06,496.642 1189.06,499.202C1189.06,501.762 1188.45,504.05 1187.24,506.066C1186.02,508.082 1184.34,509.658 1182.2,510.794C1180.06,511.93 1177.62,512.498 1174.9,512.498ZM1174.9,506.354C1176.82,506.354 1178.4,505.706 1179.63,504.41C1180.86,503.114 1181.48,501.378 1181.48,499.202C1181.48,497.026 1180.86,495.29 1179.63,493.994C1178.4,492.698 1176.82,492.05 1174.9,492.05C1172.98,492.05 1171.4,492.698 1170.15,493.994C1168.9,495.29 1168.28,497.026 1168.28,499.202C1168.28,501.378 1168.9,503.114 1170.15,504.41C1171.4,505.706 1172.98,506.354 1174.9,506.354Z" style="fill:rgb(25,25,25);fill-rule:nonzero;"/>
                    <path d="M1234.81,486.29L1225.45,512.114L1218.25,512.114L1212.44,496.082L1206.44,512.114L1199.24,512.114L1189.93,486.29L1196.98,486.29L1203.08,503.762L1209.41,486.29L1215.75,486.29L1221.89,503.762L1228.18,486.29L1234.81,486.29Z" style="fill:rgb(25,25,25);fill-rule:nonzero;"/>
                    <path d="M1239.61,512.498C1238.3,512.498 1237.19,512.05 1236.3,511.154C1235.4,510.258 1234.95,509.138 1234.95,507.794C1234.95,506.418 1235.4,505.306 1236.3,504.458C1237.19,503.61 1238.3,503.186 1239.61,503.186C1240.92,503.186 1242.02,503.61 1242.92,504.458C1243.82,505.306 1244.26,506.418 1244.26,507.794C1244.26,509.138 1243.82,510.258 1242.92,511.154C1242.02,512.05 1240.92,512.498 1239.61,512.498Z" style="fill:rgb(25,25,25);fill-rule:nonzero;"/>
                </g>
                <g id="Logo-Sunstone" serif:id="Logo Sunstone" transform="matrix(0.782312,0,0,0.782312,225.012,121.308)">
                    <g id="Logotype-Sunstone" serif:id="Logotype Sunstone" transform="matrix(2.0842,0,0,2.0842,-722.71,-501.635)">
                        <path d="M704.959,512.786C702.239,512.786 699.599,512.45 697.039,511.778C694.479,511.106 692.399,510.21 690.799,509.09L693.919,502.082C695.423,503.074 697.167,503.874 699.151,504.482C701.135,505.09 703.087,505.394 705.007,505.394C708.655,505.394 710.479,504.482 710.479,502.658C710.479,501.698 709.959,500.986 708.919,500.522C707.879,500.058 706.207,499.57 703.903,499.058C701.375,498.514 699.263,497.93 697.567,497.306C695.871,496.682 694.415,495.682 693.199,494.306C691.983,492.93 691.375,491.074 691.375,488.738C691.375,486.69 691.935,484.842 693.055,483.194C694.175,481.546 695.847,480.242 698.071,479.282C700.295,478.322 703.023,477.842 706.255,477.842C708.463,477.842 710.639,478.09 712.783,478.586C714.927,479.082 716.815,479.81 718.447,480.77L715.519,487.826C712.319,486.098 709.215,485.234 706.207,485.234C704.319,485.234 702.943,485.514 702.079,486.074C701.215,486.634 700.783,487.362 700.783,488.258C700.783,489.154 701.295,489.826 702.319,490.274C703.343,490.722 704.991,491.186 707.263,491.666C709.823,492.21 711.943,492.794 713.623,493.418C715.303,494.042 716.759,495.034 717.991,496.394C719.223,497.754 719.839,499.602 719.839,501.938C719.839,503.954 719.279,505.778 718.159,507.41C717.039,509.042 715.359,510.346 713.119,511.322C710.879,512.298 708.159,512.786 704.959,512.786Z" style="fill:rgb(232,182,121);fill-rule:nonzero;"/>
                        <path d="M740.719,485.666C743.951,485.666 746.551,486.626 748.519,488.546C750.487,490.466 751.471,493.362 751.471,497.234L751.471,512.114L742.351,512.114L742.351,498.722C742.351,495.17 740.927,493.394 738.079,493.394C736.511,493.394 735.255,493.906 734.311,494.93C733.367,495.954 732.895,497.49 732.895,499.538L732.895,512.114L723.775,512.114L723.775,476.498L732.895,476.498L732.895,488.498C733.887,487.57 735.055,486.866 736.399,486.386C737.743,485.906 739.183,485.666 740.719,485.666Z" style="fill:rgb(232,182,121);fill-rule:nonzero;"/>
                        <path d="M770.623,512.546C767.839,512.546 765.327,511.97 763.087,510.818C760.847,509.666 759.095,508.066 757.831,506.018C756.567,503.97 755.935,501.65 755.935,499.058C755.935,496.498 756.567,494.194 757.831,492.146C759.095,490.098 760.839,488.506 763.063,487.37C765.287,486.234 767.807,485.666 770.623,485.666C773.439,485.666 775.967,486.234 778.207,487.37C780.447,488.506 782.191,490.09 783.439,492.122C784.687,494.154 785.311,496.466 785.311,499.058C785.311,501.65 784.687,503.97 783.439,506.018C782.191,508.066 780.447,509.666 778.207,510.818C775.967,511.97 773.439,512.546 770.623,512.546ZM770.623,505.298C772.223,505.298 773.535,504.746 774.559,503.642C775.583,502.538 776.095,501.01 776.095,499.058C776.095,497.138 775.583,495.634 774.559,494.546C773.535,493.458 772.223,492.914 770.623,492.914C769.023,492.914 767.711,493.458 766.687,494.546C765.663,495.634 765.151,497.138 765.151,499.058C765.151,501.01 765.663,502.538 766.687,503.642C767.711,504.746 769.023,505.298 770.623,505.298Z" style="fill:rgb(232,182,121);fill-rule:nonzero;"/>
                        <path d="M805.903,485.666C808.271,485.666 810.423,486.218 812.359,487.322C814.295,488.426 815.831,489.994 816.967,492.026C818.103,494.058 818.671,496.418 818.671,499.106C818.671,501.794 818.103,504.154 816.967,506.186C815.831,508.218 814.295,509.786 812.359,510.89C810.423,511.994 808.271,512.546 805.903,512.546C802.863,512.546 800.447,511.634 798.655,509.81L798.655,521.426L789.535,521.426L789.535,486.098L798.223,486.098L798.223,488.69C799.919,486.674 802.479,485.666 805.903,485.666ZM803.983,505.298C805.583,505.298 806.895,504.746 807.919,503.642C808.943,502.538 809.455,501.026 809.455,499.106C809.455,497.186 808.943,495.674 807.919,494.57C806.895,493.466 805.583,492.914 803.983,492.914C802.383,492.914 801.071,493.466 800.047,494.57C799.023,495.674 798.511,497.186 798.511,499.106C798.511,501.026 799.023,502.538 800.047,503.642C801.071,504.746 802.383,505.298 803.983,505.298Z" style="fill:rgb(232,182,121);fill-rule:nonzero;"/>
                        <path d="M823.327,478.514L832.831,478.514L832.831,504.578L848.863,504.578L848.863,512.114L823.327,512.114L823.327,478.514Z" style="fill:rgb(232,182,121);fill-rule:nonzero;"/>
                        <path d="M852.175,486.098L861.295,486.098L861.295,512.114L852.175,512.114L852.175,486.098ZM856.735,483.218C855.071,483.218 853.727,482.754 852.703,481.826C851.679,480.898 851.167,479.746 851.167,478.37C851.167,476.994 851.679,475.842 852.703,474.914C853.727,473.986 855.071,473.522 856.735,473.522C858.399,473.522 859.743,473.962 860.767,474.842C861.791,475.722 862.303,476.85 862.303,478.226C862.303,479.666 861.791,480.858 860.767,481.802C859.743,482.746 858.399,483.218 856.735,483.218Z" style="fill:rgb(232,182,121);fill-rule:nonzero;"/>
                        <path d="M884.143,485.666C887.375,485.666 889.975,486.626 891.943,488.546C893.911,490.466 894.895,493.362 894.895,497.234L894.895,512.114L885.775,512.114L885.775,498.722C885.775,495.17 884.351,493.394 881.503,493.394C879.935,493.394 878.679,493.906 877.735,494.93C876.791,495.954 876.319,497.49 876.319,499.538L876.319,512.114L867.199,512.114L867.199,486.098L875.887,486.098L875.887,488.93C876.911,487.874 878.127,487.066 879.535,486.506C880.943,485.946 882.479,485.666 884.143,485.666Z" style="fill:rgb(232,182,121);fill-rule:nonzero;"/>
                        <path d="M912.415,502.994L909.727,505.73L909.727,512.114L900.607,512.114L900.607,476.498L909.727,476.498L909.727,495.17L919.039,486.098L929.839,486.098L919.039,497.234L930.751,512.114L919.711,512.114L912.415,502.994Z" style="fill:rgb(232,182,121);fill-rule:nonzero;"/>
                        <path d="M942.127,489.218C943.055,488.034 944.263,487.146 945.751,486.554C947.239,485.962 948.943,485.666 950.863,485.666L950.863,493.874C950.031,493.778 949.343,493.73 948.799,493.73C946.847,493.73 945.319,494.258 944.215,495.314C943.111,496.37 942.559,497.986 942.559,500.162L942.559,512.114L933.439,512.114L933.439,486.098L942.127,486.098L942.127,489.218Z" style="fill:rgb(232,182,121);fill-rule:nonzero;"/>
                        <g transform="matrix(0.165354,0,0,0.165354,787.745,427.41)">
                            <path d="M969.583,478.37C972.751,478.37 975.623,479.106 978.199,480.578C980.775,482.05 982.799,484.074 984.271,486.65C985.743,489.226 986.479,492.082 986.479,495.218C986.479,498.354 985.727,501.226 984.223,503.834C982.719,506.442 980.671,508.498 978.079,510.002C975.487,511.506 972.623,512.258 969.487,512.258C966.351,512.258 963.495,511.506 960.919,510.002C958.343,508.498 956.311,506.45 954.823,503.858C953.335,501.266 952.591,498.418 952.591,495.314C952.591,492.21 953.335,489.362 954.823,486.77C956.311,484.178 958.351,482.13 960.943,480.626C963.535,479.122 966.415,478.37 969.583,478.37ZM979.231,504.386C980.319,503.17 981.151,501.778 981.727,500.21C982.303,498.642 982.591,496.978 982.591,495.218C982.591,492.722 982.039,490.474 980.935,488.474C979.831,486.474 978.287,484.898 976.303,483.746C974.319,482.594 972.079,482.018 969.583,482.018C967.087,482.018 964.839,482.602 962.839,483.77C960.839,484.938 959.279,486.538 958.159,488.57C957.039,490.602 956.479,492.85 956.479,495.314C956.479,497.778 957.039,500.026 958.159,502.058C959.279,504.09 960.831,505.69 962.815,506.858C964.799,508.026 967.023,508.61 969.487,508.61C971.407,508.61 973.191,508.25 974.839,507.53C976.487,506.81 977.903,505.794 979.087,504.482L973.279,504.482L970.063,499.49L967.807,499.49L967.807,504.482L961.903,504.482L961.903,486.146L970.255,486.146C972.815,486.146 974.831,486.746 976.303,487.946C977.775,489.146 978.511,490.77 978.511,492.818C978.511,495.442 977.455,497.314 975.343,498.434L979.231,504.386ZM969.871,495.266C970.735,495.266 971.415,495.05 971.911,494.618C972.407,494.186 972.655,493.586 972.655,492.818C972.655,492.05 972.415,491.45 971.935,491.018C971.455,490.586 970.767,490.37 969.871,490.37L967.807,490.37L967.807,495.266L969.871,495.266Z" style="fill:rgb(232,182,121);fill-rule:nonzero;"/>
                        </g>
                    </g>
                    <g id="Logomark-Sunstone" serif:id="Logomark Sunstone" transform="matrix(1.23182,0,0,1.23182,-321.576,-377.71)">
                        <rect x="764.33" y="727.595" width="19.708" height="19.708" style="fill:rgb(232,182,121);"/>
                        <g transform="matrix(1,0,0,1,19.708,-19.708)">
                            <rect x="764.33" y="727.595" width="19.708" height="19.708" style="fill:rgb(232,182,121);"/>
                        </g>
                        <g transform="matrix(1,0,0,1,0,19.708)">
                            <rect x="764.33" y="727.595" width="19.708" height="19.708" style="fill:rgb(232,182,121);fill-opacity:0.75;"/>
                        </g>
                        <g transform="matrix(1,0,0,1,39.4159,-19.708)">
                            <rect x="764.33" y="727.595" width="19.708" height="19.708" style="fill:rgb(232,182,121);fill-opacity:0.75;"/>
                        </g>
                        <g transform="matrix(1,0,0,1,19.708,19.708)">
                            <rect x="764.33" y="727.595" width="19.708" height="19.708" style="fill:rgb(232,182,121);"/>
                        </g>
                        <g transform="matrix(1,0,0,1,39.4159,0)">
                            <rect x="764.33" y="727.595" width="19.708" height="19.708" style="fill:rgb(232,182,121);"/>
                        </g>
                    </g>
                </g>
            </g>
        </g>
    </g>
</svg>
