<?xml version="1.0" encoding="UTF-8" standalone="no"?><!DOCTYPE svg PUBLIC "-//W3C//DTD SVG 1.1//EN" "http://www.w3.org/Graphics/SVG/1.1/DTD/svg11.dtd"><svg width="100%" height="100%" viewBox="0 0 500 82" version="1.1" xmlns="http://www.w3.org/2000/svg" xmlns:xlink="http://www.w3.org/1999/xlink" xml:space="preserve" xmlns:serif="http://www.serif.com/" style="fill-rule:evenodd;clip-rule:evenodd;stroke-linejoin:round;stroke-miterlimit:2;"><g id="Logo-White---Slogan-White" serif:id="Logo White + Slogan White"><g id="Slogan-White" serif:id="Slogan White"><path d="M298.425,78.093c-1.171,-0 -2.229,-0.255 -3.175,-0.763c-0.946,-0.509 -1.69,-1.214 -2.231,-2.117c-0.541,-0.902 -0.812,-1.922 -0.812,-3.059c-0,-1.138 0.271,-2.158 0.812,-3.06c0.541,-0.902 1.285,-1.608 2.231,-2.116c0.946,-0.509 2.01,-0.763 3.191,-0.763c0.995,-0 1.895,0.175 2.699,0.525c0.804,0.35 1.479,0.853 2.026,1.509l-1.706,1.575c-0.777,-0.897 -1.739,-1.345 -2.888,-1.345c-0.711,-0 -1.345,0.156 -1.903,0.467c-0.557,0.312 -0.992,0.747 -1.304,1.305c-0.312,0.557 -0.468,1.192 -0.468,1.903c0,0.711 0.156,1.345 0.468,1.903c0.312,0.558 0.747,0.992 1.304,1.304c0.558,0.312 1.192,0.468 1.903,0.468c1.149,-0 2.111,-0.454 2.888,-1.362l1.706,1.575c-0.547,0.667 -1.225,1.176 -2.034,1.526c-0.81,0.35 -1.712,0.525 -2.707,0.525Z" style="fill:#fff;fill-rule:nonzero;"/><path d="M308.662,78.027c-0.93,-0 -1.764,-0.194 -2.502,-0.582c-0.738,-0.389 -1.315,-0.927 -1.731,-1.616c-0.415,-0.689 -0.623,-1.471 -0.623,-2.346c-0,-0.875 0.208,-1.657 0.623,-2.346c0.416,-0.689 0.993,-1.228 1.731,-1.616c0.738,-0.389 1.572,-0.583 2.502,-0.583c0.929,0 1.761,0.194 2.493,0.583c0.733,0.388 1.307,0.927 1.723,1.616c0.416,0.689 0.623,1.471 0.623,2.346c0,0.875 -0.207,1.657 -0.623,2.346c-0.416,0.689 -0.99,1.227 -1.723,1.616c-0.732,0.388 -1.564,0.582 -2.493,0.582Zm-0,-2.1c0.656,0 1.195,-0.221 1.616,-0.664c0.421,-0.443 0.631,-1.037 0.631,-1.78c0,-0.744 -0.21,-1.337 -0.631,-1.78c-0.421,-0.443 -0.96,-0.665 -1.616,-0.665c-0.656,0 -1.198,0.222 -1.624,0.665c-0.427,0.443 -0.64,1.036 -0.64,1.78c-0,0.743 0.213,1.337 0.64,1.78c0.426,0.443 0.968,0.664 1.624,0.664Z" style="fill:#fff;fill-rule:nonzero;"/><path d="M320.572,68.938c1.094,0 1.977,0.328 2.65,0.985c0.672,0.656 1.009,1.629 1.009,2.92l-0,5.053l-2.56,-0l0,-4.659c0,-0.7 -0.153,-1.223 -0.459,-1.567c-0.306,-0.345 -0.749,-0.517 -1.329,-0.517c-0.645,0 -1.159,0.2 -1.542,0.599c-0.383,0.399 -0.574,0.992 -0.574,1.78l-0,4.364l-2.559,-0l-0,-8.826l2.444,-0l0,1.033c0.339,-0.372 0.76,-0.659 1.263,-0.861c0.503,-0.203 1.056,-0.304 1.657,-0.304Z" style="fill:#fff;fill-rule:nonzero;"/><path d="M331.908,68.938c1.094,0 1.977,0.328 2.65,0.985c0.673,0.656 1.009,1.629 1.009,2.92l-0,5.053l-2.559,-0l-0,-4.659c-0,-0.7 -0.153,-1.223 -0.46,-1.567c-0.306,-0.345 -0.749,-0.517 -1.329,-0.517c-0.645,0 -1.159,0.2 -1.542,0.599c-0.382,0.399 -0.574,0.992 -0.574,1.78l0,4.364l-2.559,-0l-0,-8.826l2.444,-0l0,1.033c0.339,-0.372 0.76,-0.659 1.264,-0.861c0.503,-0.203 1.055,-0.304 1.656,-0.304Z" style="fill:#fff;fill-rule:nonzero;"/><path d="M346.624,73.515c0,0.033 -0.016,0.263 -0.049,0.689l-6.677,0c0.12,0.547 0.405,0.979 0.853,1.296c0.448,0.318 1.006,0.476 1.673,0.476c0.46,0 0.867,-0.068 1.223,-0.205c0.355,-0.137 0.686,-0.353 0.992,-0.648l1.362,1.477c-0.831,0.951 -2.045,1.427 -3.642,1.427c-0.995,-0 -1.876,-0.194 -2.641,-0.582c-0.766,-0.389 -1.357,-0.927 -1.772,-1.616c-0.416,-0.689 -0.624,-1.471 -0.624,-2.346c0,-0.864 0.205,-1.644 0.616,-2.338c0.41,-0.695 0.973,-1.236 1.689,-1.624c0.717,-0.389 1.518,-0.583 2.404,-0.583c0.864,0 1.646,0.186 2.346,0.558c0.7,0.372 1.249,0.905 1.648,1.6c0.4,0.694 0.599,1.501 0.599,2.419Zm-4.577,-2.641c-0.58,0 -1.066,0.164 -1.46,0.492c-0.394,0.328 -0.634,0.777 -0.722,1.346l4.348,-0c-0.088,-0.558 -0.328,-1.004 -0.722,-1.338c-0.394,-0.333 -0.875,-0.5 -1.444,-0.5Z" style="fill:#fff;fill-rule:nonzero;"/><path d="M352.596,78.027c-0.941,-0 -1.786,-0.194 -2.535,-0.582c-0.749,-0.389 -1.334,-0.927 -1.755,-1.616c-0.421,-0.689 -0.632,-1.471 -0.632,-2.346c0,-0.875 0.211,-1.657 0.632,-2.346c0.421,-0.689 1.006,-1.228 1.755,-1.616c0.749,-0.389 1.594,-0.583 2.535,-0.583c0.93,0 1.742,0.194 2.436,0.583c0.695,0.388 1.2,0.943 1.518,1.665l-1.985,1.066c-0.46,-0.809 -1.121,-1.214 -1.986,-1.214c-0.667,0 -1.219,0.219 -1.656,0.656c-0.438,0.438 -0.657,1.034 -0.657,1.789c0,0.754 0.219,1.35 0.657,1.788c0.437,0.437 0.989,0.656 1.656,0.656c0.875,0 1.537,-0.405 1.986,-1.214l1.985,1.083c-0.318,0.7 -0.823,1.247 -1.518,1.64c-0.694,0.394 -1.506,0.591 -2.436,0.591Z" style="fill:#fff;fill-rule:nonzero;"/><path d="M363.85,77.469c-0.251,0.186 -0.56,0.326 -0.927,0.419c-0.366,0.092 -0.752,0.139 -1.156,0.139c-1.05,-0 -1.862,-0.268 -2.437,-0.804c-0.574,-0.536 -0.861,-1.323 -0.861,-2.362l0,-3.626l-1.362,0l0,-1.969l1.362,0l0,-2.149l2.559,0l0,2.149l2.199,0l-0,1.969l-2.199,0l0,3.593c0,0.372 0.096,0.659 0.287,0.861c0.192,0.202 0.463,0.304 0.813,0.304c0.404,-0 0.749,-0.11 1.033,-0.328l0.689,1.804Z" style="fill:#fff;fill-rule:nonzero;"/><path d="M366.426,78.027c-0.449,-0 -0.826,-0.153 -1.132,-0.459c-0.306,-0.307 -0.46,-0.689 -0.46,-1.149c0,-0.47 0.154,-0.85 0.46,-1.14c0.306,-0.29 0.683,-0.435 1.132,-0.435c0.448,0 0.826,0.145 1.132,0.435c0.306,0.29 0.459,0.67 0.459,1.14c0,0.46 -0.153,0.842 -0.459,1.149c-0.306,0.306 -0.684,0.459 -1.132,0.459Z" style="fill:#fff;fill-rule:nonzero;"/><path d="M385.03,77.896l-0.017,-6.891l-3.379,5.677l-1.198,-0l-3.363,-5.529l0,6.743l-2.494,-0l0,-11.484l2.199,-0l4.298,7.136l4.233,-7.136l2.182,-0l0.032,11.484l-2.493,-0Z" style="fill:#fff;fill-rule:nonzero;"/><path d="M393.626,68.938c1.367,0 2.417,0.326 3.15,0.976c0.733,0.651 1.099,1.633 1.099,2.945l0,5.037l-2.395,-0l0,-1.099c-0.481,0.82 -1.378,1.23 -2.69,1.23c-0.679,-0 -1.266,-0.115 -1.764,-0.345c-0.498,-0.229 -0.878,-0.546 -1.14,-0.951c-0.263,-0.405 -0.394,-0.864 -0.394,-1.378c0,-0.82 0.309,-1.466 0.927,-1.936c0.618,-0.47 1.572,-0.705 2.863,-0.705l2.034,-0c0,-0.558 -0.17,-0.988 -0.509,-1.288c-0.339,-0.301 -0.847,-0.451 -1.525,-0.451c-0.471,-0 -0.933,0.073 -1.387,0.221c-0.453,0.148 -0.839,0.347 -1.156,0.599l-0.919,-1.788c0.481,-0.339 1.058,-0.602 1.731,-0.788c0.673,-0.186 1.364,-0.279 2.075,-0.279Zm-0.197,7.366c0.438,0 0.826,-0.101 1.165,-0.303c0.339,-0.202 0.58,-0.501 0.722,-0.894l0,-0.903l-1.755,0c-1.05,0 -1.575,0.345 -1.575,1.034c-0,0.328 0.128,0.588 0.385,0.779c0.257,0.192 0.61,0.287 1.058,0.287Z" style="fill:#fff;fill-rule:nonzero;"/><path d="M405.553,68.938c1.094,0 1.977,0.328 2.65,0.985c0.672,0.656 1.009,1.629 1.009,2.92l-0,5.053l-2.56,-0l0,-4.659c0,-0.7 -0.153,-1.223 -0.459,-1.567c-0.306,-0.345 -0.749,-0.517 -1.329,-0.517c-0.645,0 -1.159,0.2 -1.542,0.599c-0.383,0.399 -0.574,0.992 -0.574,1.78l-0,4.364l-2.56,-0l0,-8.826l2.445,-0l-0,1.033c0.339,-0.372 0.76,-0.659 1.263,-0.861c0.503,-0.203 1.056,-0.304 1.657,-0.304Z" style="fill:#fff;fill-rule:nonzero;"/><path d="M415.085,68.938c1.367,0 2.417,0.326 3.15,0.976c0.732,0.651 1.099,1.633 1.099,2.945l-0,5.037l-2.395,-0l-0,-1.099c-0.482,0.82 -1.378,1.23 -2.691,1.23c-0.678,-0 -1.266,-0.115 -1.764,-0.345c-0.497,-0.229 -0.877,-0.546 -1.14,-0.951c-0.262,-0.405 -0.393,-0.864 -0.393,-1.378c-0,-0.82 0.309,-1.466 0.926,-1.936c0.618,-0.47 1.573,-0.705 2.863,-0.705l2.035,-0c-0,-0.558 -0.17,-0.988 -0.509,-1.288c-0.339,-0.301 -0.848,-0.451 -1.526,-0.451c-0.47,-0 -0.932,0.073 -1.386,0.221c-0.454,0.148 -0.839,0.347 -1.157,0.599l-0.918,-1.788c0.481,-0.339 1.058,-0.602 1.73,-0.788c0.673,-0.186 1.365,-0.279 2.076,-0.279Zm-0.197,7.366c0.437,0 0.826,-0.101 1.165,-0.303c0.339,-0.202 0.579,-0.501 0.722,-0.894l-0,-0.903l-1.756,0c-1.05,0 -1.575,0.345 -1.575,1.034c0,0.328 0.129,0.588 0.386,0.779c0.257,0.192 0.609,0.287 1.058,0.287Z" style="fill:#fff;fill-rule:nonzero;"/><path d="M430.85,69.07l0,7.349c0,1.619 -0.421,2.822 -1.263,3.609c-0.842,0.788 -2.072,1.182 -3.691,1.182c-0.853,-0 -1.662,-0.104 -2.428,-0.312c-0.766,-0.208 -1.4,-0.509 -1.903,-0.902l1.017,-1.838c0.372,0.306 0.842,0.55 1.411,0.73c0.569,0.181 1.137,0.271 1.706,0.271c0.886,-0 1.54,-0.2 1.961,-0.599c0.421,-0.399 0.631,-1.003 0.631,-1.813l0,-0.377c-0.667,0.733 -1.597,1.099 -2.789,1.099c-0.809,0 -1.55,-0.178 -2.223,-0.533c-0.672,-0.355 -1.205,-0.856 -1.599,-1.501c-0.394,-0.645 -0.591,-1.389 -0.591,-2.231c0,-0.842 0.197,-1.586 0.591,-2.231c0.394,-0.646 0.927,-1.146 1.599,-1.502c0.673,-0.355 1.414,-0.533 2.223,-0.533c1.28,0 2.253,0.421 2.92,1.263l0,-1.131l2.428,-0Zm-4.839,6.299c0.678,0 1.233,-0.199 1.665,-0.599c0.432,-0.399 0.648,-0.921 0.648,-1.566c0,-0.646 -0.216,-1.168 -0.648,-1.567c-0.432,-0.399 -0.987,-0.599 -1.665,-0.599c-0.678,0 -1.236,0.2 -1.674,0.599c-0.437,0.399 -0.656,0.921 -0.656,1.567c0,0.645 0.219,1.167 0.656,1.566c0.438,0.4 0.996,0.599 1.674,0.599Z" style="fill:#fff;fill-rule:nonzero;"/><path d="M441.875,73.515c0,0.033 -0.016,0.263 -0.049,0.689l-6.677,0c0.12,0.547 0.404,0.979 0.853,1.296c0.448,0.318 1.006,0.476 1.673,0.476c0.46,0 0.867,-0.068 1.222,-0.205c0.356,-0.137 0.687,-0.353 0.993,-0.648l1.362,1.477c-0.832,0.951 -2.046,1.427 -3.642,1.427c-0.996,-0 -1.876,-0.194 -2.642,-0.582c-0.765,-0.389 -1.356,-0.927 -1.772,-1.616c-0.415,-0.689 -0.623,-1.471 -0.623,-2.346c0,-0.864 0.205,-1.644 0.615,-2.338c0.41,-0.695 0.974,-1.236 1.69,-1.624c0.716,-0.389 1.518,-0.583 2.403,-0.583c0.865,0 1.647,0.186 2.346,0.558c0.7,0.372 1.25,0.905 1.649,1.6c0.399,0.694 0.599,1.501 0.599,2.419Zm-4.577,-2.641c-0.58,0 -1.066,0.164 -1.46,0.492c-0.394,0.328 -0.635,0.777 -0.722,1.346l4.347,-0c-0.087,-0.558 -0.328,-1.004 -0.721,-1.338c-0.394,-0.333 -0.875,-0.5 -1.444,-0.5Z" style="fill:#fff;fill-rule:nonzero;"/><path d="M444.549,78.027c-0.448,-0 -0.826,-0.153 -1.132,-0.459c-0.306,-0.307 -0.459,-0.689 -0.459,-1.149c-0,-0.47 0.153,-0.85 0.459,-1.14c0.306,-0.29 0.684,-0.435 1.132,-0.435c0.449,0 0.826,0.145 1.132,0.435c0.306,0.29 0.459,0.67 0.459,1.14c0,0.46 -0.153,0.842 -0.459,1.149c-0.306,0.306 -0.683,0.459 -1.132,0.459Z" style="fill:#fff;fill-rule:nonzero;"/><path d="M460.463,71.973l2.428,0l-0,4.659c-0.624,0.471 -1.346,0.832 -2.166,1.083c-0.82,0.252 -1.646,0.378 -2.477,0.378c-1.192,-0 -2.264,-0.255 -3.216,-0.763c-0.951,-0.509 -1.698,-1.214 -2.239,-2.117c-0.541,-0.902 -0.812,-1.922 -0.812,-3.059c-0,-1.138 0.271,-2.158 0.812,-3.06c0.541,-0.902 1.293,-1.608 2.256,-2.116c0.962,-0.509 2.045,-0.763 3.248,-0.763c1.006,-0 1.919,0.169 2.74,0.509c0.82,0.339 1.509,0.831 2.067,1.476l-1.706,1.575c-0.821,-0.864 -1.81,-1.296 -2.97,-1.296c-0.733,-0 -1.383,0.153 -1.952,0.459c-0.569,0.306 -1.012,0.739 -1.329,1.296c-0.317,0.558 -0.476,1.198 -0.476,1.92c0,0.711 0.159,1.345 0.476,1.903c0.317,0.558 0.758,0.992 1.321,1.304c0.563,0.312 1.206,0.468 1.927,0.468c0.766,-0 1.455,-0.164 2.068,-0.493l-0,-3.363Z" style="fill:#fff;fill-rule:nonzero;"/><path d="M467.615,70.234c0.307,-0.426 0.72,-0.749 1.239,-0.968c0.52,-0.218 1.118,-0.328 1.796,-0.328l0,2.363c-0.284,-0.022 -0.475,-0.033 -0.574,-0.033c-0.733,-0 -1.307,0.205 -1.722,0.615c-0.416,0.41 -0.624,1.025 -0.624,1.846l0,4.167l-2.559,-0l-0,-8.826l2.444,-0l0,1.164Z" style="fill:#fff;fill-rule:nonzero;"/><path d="M476.294,78.027c-0.93,-0 -1.764,-0.194 -2.502,-0.582c-0.738,-0.389 -1.315,-0.927 -1.731,-1.616c-0.415,-0.689 -0.623,-1.471 -0.623,-2.346c-0,-0.875 0.208,-1.657 0.623,-2.346c0.416,-0.689 0.993,-1.228 1.731,-1.616c0.738,-0.389 1.572,-0.583 2.502,-0.583c0.93,0 1.761,0.194 2.494,0.583c0.732,0.388 1.307,0.927 1.722,1.616c0.416,0.689 0.624,1.471 0.624,2.346c-0,0.875 -0.208,1.657 -0.624,2.346c-0.415,0.689 -0.99,1.227 -1.722,1.616c-0.733,0.388 -1.564,0.582 -2.494,0.582Zm-0,-2.1c0.656,0 1.195,-0.221 1.616,-0.664c0.421,-0.443 0.632,-1.037 0.632,-1.78c-0,-0.744 -0.211,-1.337 -0.632,-1.78c-0.421,-0.443 -0.96,-0.665 -1.616,-0.665c-0.656,0 -1.198,0.222 -1.624,0.665c-0.427,0.443 -0.64,1.036 -0.64,1.78c-0,0.743 0.213,1.337 0.64,1.78c0.426,0.443 0.968,0.664 1.624,0.664Z" style="fill:#fff;fill-rule:nonzero;"/><path d="M496.768,69.07l-3.199,8.826l-2.461,-0l-1.985,-5.48l-2.051,5.48l-2.46,-0l-3.183,-8.826l2.412,-0l2.083,5.971l2.166,-5.971l2.165,-0l2.1,5.971l2.149,-5.971l2.264,-0Z" style="fill:#fff;fill-rule:nonzero;"/><path d="M498.409,78.027c-0.449,-0 -0.826,-0.153 -1.132,-0.459c-0.307,-0.307 -0.46,-0.689 -0.46,-1.149c0,-0.47 0.153,-0.85 0.46,-1.14c0.306,-0.29 0.683,-0.435 1.132,-0.435c0.448,0 0.825,0.145 1.132,0.435c0.306,0.29 0.459,0.67 0.459,1.14c-0,0.46 -0.153,0.842 -0.459,1.149c-0.307,0.306 -0.684,0.459 -1.132,0.459Z" style="fill:#fff;fill-rule:nonzero;"/></g><g id="Logo-White" serif:id="Logo White"><g id="Logotype-White" serif:id="Logotype White"><path d="M99.056,64.02c-4.435,-0 -8.74,-0.548 -12.914,-1.644c-4.174,-1.096 -7.565,-2.557 -10.174,-4.383l5.087,-11.426c2.452,1.617 5.296,2.922 8.531,3.913c3.235,0.991 6.417,1.487 9.548,1.487c5.948,0 8.922,-1.487 8.922,-4.461c-0,-1.565 -0.848,-2.726 -2.544,-3.483c-1.695,-0.756 -4.422,-1.552 -8.178,-2.387c-4.122,-0.887 -7.566,-1.839 -10.331,-2.856c-2.765,-1.018 -5.139,-2.648 -7.122,-4.892c-1.983,-2.243 -2.974,-5.27 -2.974,-9.078c0,-3.34 0.913,-6.353 2.739,-9.04c1.826,-2.687 4.553,-4.813 8.179,-6.378c3.626,-1.566 8.074,-2.348 13.344,-2.348c3.6,-0 7.148,0.404 10.644,1.213c3.495,0.809 6.574,1.996 9.235,3.561l-4.774,11.505c-5.218,-2.818 -10.279,-4.227 -15.184,-4.227c-3.078,0 -5.321,0.457 -6.73,1.37c-1.409,0.913 -2.113,2.1 -2.113,3.561c-0,1.461 0.834,2.557 2.504,3.287c1.67,0.73 4.357,1.487 8.061,2.27c4.174,0.887 7.631,1.839 10.37,2.856c2.739,1.018 5.113,2.635 7.122,4.853c2.009,2.217 3.013,5.23 3.013,9.039c0,3.287 -0.913,6.261 -2.739,8.922c-1.826,2.661 -4.565,4.787 -8.218,6.379c-3.652,1.591 -8.087,2.387 -13.304,2.387Z" style="fill:#fff;fill-rule:nonzero;"/><path d="M157.362,19.801c5.27,-0 9.509,1.565 12.718,4.696c3.209,3.13 4.813,7.852 4.813,14.165l0,24.262l-14.87,-0l-0,-21.836c-0,-5.791 -2.322,-8.687 -6.966,-8.687c-2.556,0 -4.604,0.835 -6.143,2.505c-1.539,1.669 -2.309,4.174 -2.309,7.513l0,20.505l-14.87,-0l-0,-58.072l14.87,0l0,19.566c1.617,-1.513 3.522,-2.661 5.713,-3.443c2.192,-0.783 4.54,-1.174 7.044,-1.174Z" style="fill:#fff;fill-rule:nonzero;"/><path d="M206.12,63.628c-4.539,0 -8.635,-0.939 -12.287,-2.817c-3.652,-1.879 -6.509,-4.487 -8.57,-7.827c-2.061,-3.339 -3.091,-7.122 -3.091,-11.348c-0,-4.174 1.03,-7.93 3.091,-11.27c2.061,-3.339 4.904,-5.935 8.531,-7.787c3.626,-1.852 7.735,-2.778 12.326,-2.778c4.592,-0 8.714,0.926 12.366,2.778c3.652,1.852 6.496,4.435 8.531,7.748c2.034,3.313 3.052,7.083 3.052,11.309c-0,4.226 -1.018,8.009 -3.052,11.348c-2.035,3.34 -4.879,5.948 -8.531,7.827c-3.652,1.878 -7.774,2.817 -12.366,2.817Zm0,-11.818c2.609,0 4.748,-0.9 6.418,-2.7c1.669,-1.8 2.504,-4.291 2.504,-7.474c0,-3.13 -0.835,-5.583 -2.504,-7.357c-1.67,-1.774 -3.809,-2.661 -6.418,-2.661c-2.609,0 -4.748,0.887 -6.417,2.661c-1.67,1.774 -2.505,4.227 -2.505,7.357c0,3.183 0.835,5.674 2.505,7.474c1.669,1.8 3.808,2.7 6.417,2.7Z" style="fill:#fff;fill-rule:nonzero;"/><path d="M263.644,19.801c3.861,-0 7.37,0.9 10.526,2.7c3.157,1.8 5.661,4.356 7.514,7.67c1.852,3.313 2.778,7.161 2.778,11.543c0,4.383 -0.926,8.231 -2.778,11.544c-1.853,3.314 -4.357,5.87 -7.514,7.67c-3.156,1.8 -6.665,2.7 -10.526,2.7c-4.957,0 -8.896,-1.487 -11.818,-4.461l0,18.94l-14.87,0l0,-57.602l14.166,0l-0,4.226c2.765,-3.287 6.939,-4.93 12.522,-4.93Zm-3.131,32.009c2.609,0 4.748,-0.9 6.418,-2.7c1.67,-1.8 2.504,-4.265 2.504,-7.396c0,-3.13 -0.834,-5.595 -2.504,-7.395c-1.67,-1.8 -3.809,-2.701 -6.418,-2.701c-2.608,0 -4.748,0.901 -6.417,2.701c-1.67,1.8 -2.505,4.265 -2.505,7.395c0,3.131 0.835,5.596 2.505,7.396c1.669,1.8 3.809,2.7 6.417,2.7Z" style="fill:#fff;fill-rule:nonzero;"/><path d="M292.054,8.139l15.496,0l-0,42.498l26.14,-0l-0,12.287l-41.636,-0l-0,-54.785Z" style="fill:#fff;fill-rule:nonzero;"/><path d="M339.09,20.505l14.87,0l0,42.419l-14.87,-0l0,-42.419Zm7.435,-4.696c-2.713,0 -4.904,-0.756 -6.574,-2.269c-1.67,-1.513 -2.504,-3.392 -2.504,-5.635c-0,-2.244 0.834,-4.122 2.504,-5.635c1.67,-1.513 3.861,-2.27 6.574,-2.27c2.713,-0 4.905,0.717 6.574,2.152c1.67,1.435 2.505,3.274 2.505,5.518c-0,2.348 -0.835,4.291 -2.505,5.83c-1.669,1.54 -3.861,2.309 -6.574,2.309Z" style="fill:#fff;fill-rule:nonzero;"/><path d="M391.214,19.801c5.269,-0 9.509,1.565 12.717,4.696c3.209,3.13 4.814,7.852 4.814,14.165l-0,24.262l-14.87,-0l-0,-21.836c-0,-5.791 -2.322,-8.687 -6.966,-8.687c-2.557,0 -4.604,0.835 -6.144,2.505c-1.539,1.669 -2.308,4.174 -2.308,7.513l-0,20.505l-14.87,-0l-0,-42.419l14.165,0l0,4.618c1.67,-1.722 3.653,-3.04 5.948,-3.953c2.296,-0.913 4.8,-1.369 7.514,-1.369Z" style="fill:#fff;fill-rule:nonzero;"/><path d="M437.311,48.054l-4.383,4.461l0,10.409l-14.87,-0l0,-58.072l14.87,0l0,30.445l15.183,-14.792l17.61,0l-17.61,18.157l19.097,24.262l-18.001,-0l-11.896,-14.87Z" style="fill:#fff;fill-rule:nonzero;"/><path d="M485.756,25.592c1.513,-1.93 3.483,-3.378 5.909,-4.343c2.426,-0.966 5.204,-1.448 8.335,-1.448l0,13.383c-1.357,-0.157 -2.478,-0.235 -3.365,-0.235c-3.183,-0 -5.674,0.861 -7.475,2.583c-1.8,1.721 -2.7,4.356 -2.7,7.904l0,19.488l-14.87,-0l0,-42.419l14.166,0l0,5.087Z" style="fill:#fff;fill-rule:nonzero;"/></g><g id="Logomark-White" serif:id="Logomark White"><rect x="0" y="26.036" width="18.992" height="18.992" style="fill:#fff;"/><rect x="18.992" y="7.044" width="18.992" height="18.992" style="fill:#fff;"/><rect x="0" y="45.028" width="18.992" height="18.992" style="fill:#fff;fill-opacity:0.75;"/><rect x="37.984" y="7.044" width="18.992" height="18.992" style="fill:#fff;fill-opacity:0.75;"/><rect x="18.992" y="45.028" width="18.992" height="18.992" style="fill:#fff;"/><rect x="37.984" y="26.036" width="18.992" height="18.992" style="fill:#fff;"/></g></g></g></svg>