<?xml version="1.0" encoding="UTF-8" standalone="no"?>
<!DOCTYPE svg PUBLIC "-//W3C//DTD SVG 1.1//EN" "http://www.w3.org/Graphics/SVG/1.1/DTD/svg11.dtd">
<svg width="100%" height="100%" viewBox="0 0 501 79" version="1.1" xmlns="http://www.w3.org/2000/svg" xmlns:xlink="http://www.w3.org/1999/xlink" xml:space="preserve" xmlns:serif="http://www.serif.com/" style="fill-rule:evenodd;clip-rule:evenodd;stroke-linejoin:round;stroke-miterlimit:2;">
    <g transform="matrix(1,0,0,1,-76,-392)">
        <g transform="matrix(1,0,0,1,-633.502,-108.907)">
            <g id="Logo-Sunstone" serif:id="Logo Sunstone" transform="matrix(0.782312,0,0,0.782312,225.012,121.308)">
                <g id="Logotype-Sunstone" serif:id="Logotype Sunstone" transform="matrix(2.0842,0,0,2.0842,-722.71,-501.635)">
                    <path d="M704.959,512.786C702.239,512.786 699.599,512.45 697.039,511.778C694.479,511.106 692.399,510.21 690.799,509.09L693.919,502.082C695.423,503.074 697.167,503.874 699.151,504.482C701.135,505.09 703.087,505.394 705.007,505.394C708.655,505.394 710.479,504.482 710.479,502.658C710.479,501.698 709.959,500.986 708.919,500.522C707.879,500.058 706.207,499.57 703.903,499.058C701.375,498.514 699.263,497.93 697.567,497.306C695.871,496.682 694.415,495.682 693.199,494.306C691.983,492.93 691.375,491.074 691.375,488.738C691.375,486.69 691.935,484.842 693.055,483.194C694.175,481.546 695.847,480.242 698.071,479.282C700.295,478.322 703.023,477.842 706.255,477.842C708.463,477.842 710.639,478.09 712.783,478.586C714.927,479.082 716.815,479.81 718.447,480.77L715.519,487.826C712.319,486.098 709.215,485.234 706.207,485.234C704.319,485.234 702.943,485.514 702.079,486.074C701.215,486.634 700.783,487.362 700.783,488.258C700.783,489.154 701.295,489.826 702.319,490.274C703.343,490.722 704.991,491.186 707.263,491.666C709.823,492.21 711.943,492.794 713.623,493.418C715.303,494.042 716.759,495.034 717.991,496.394C719.223,497.754 719.839,499.602 719.839,501.938C719.839,503.954 719.279,505.778 718.159,507.41C717.039,509.042 715.359,510.346 713.119,511.322C710.879,512.298 708.159,512.786 704.959,512.786Z" style="fill:rgb(25,25,25);fill-rule:nonzero;"/>
                    <path d="M740.719,485.666C743.951,485.666 746.551,486.626 748.519,488.546C750.487,490.466 751.471,493.362 751.471,497.234L751.471,512.114L742.351,512.114L742.351,498.722C742.351,495.17 740.927,493.394 738.079,493.394C736.511,493.394 735.255,493.906 734.311,494.93C733.367,495.954 732.895,497.49 732.895,499.538L732.895,512.114L723.775,512.114L723.775,476.498L732.895,476.498L732.895,488.498C733.887,487.57 735.055,486.866 736.399,486.386C737.743,485.906 739.183,485.666 740.719,485.666Z" style="fill:rgb(25,25,25);fill-rule:nonzero;"/>
                    <path d="M770.623,512.546C767.839,512.546 765.327,511.97 763.087,510.818C760.847,509.666 759.095,508.066 757.831,506.018C756.567,503.97 755.935,501.65 755.935,499.058C755.935,496.498 756.567,494.194 757.831,492.146C759.095,490.098 760.839,488.506 763.063,487.37C765.287,486.234 767.807,485.666 770.623,485.666C773.439,485.666 775.967,486.234 778.207,487.37C780.447,488.506 782.191,490.09 783.439,492.122C784.687,494.154 785.311,496.466 785.311,499.058C785.311,501.65 784.687,503.97 783.439,506.018C782.191,508.066 780.447,509.666 778.207,510.818C775.967,511.97 773.439,512.546 770.623,512.546ZM770.623,505.298C772.223,505.298 773.535,504.746 774.559,503.642C775.583,502.538 776.095,501.01 776.095,499.058C776.095,497.138 775.583,495.634 774.559,494.546C773.535,493.458 772.223,492.914 770.623,492.914C769.023,492.914 767.711,493.458 766.687,494.546C765.663,495.634 765.151,497.138 765.151,499.058C765.151,501.01 765.663,502.538 766.687,503.642C767.711,504.746 769.023,505.298 770.623,505.298Z" style="fill:rgb(25,25,25);fill-rule:nonzero;"/>
                    <path d="M805.903,485.666C808.271,485.666 810.423,486.218 812.359,487.322C814.295,488.426 815.831,489.994 816.967,492.026C818.103,494.058 818.671,496.418 818.671,499.106C818.671,501.794 818.103,504.154 816.967,506.186C815.831,508.218 814.295,509.786 812.359,510.89C810.423,511.994 808.271,512.546 805.903,512.546C802.863,512.546 800.447,511.634 798.655,509.81L798.655,521.426L789.535,521.426L789.535,486.098L798.223,486.098L798.223,488.69C799.919,486.674 802.479,485.666 805.903,485.666ZM803.983,505.298C805.583,505.298 806.895,504.746 807.919,503.642C808.943,502.538 809.455,501.026 809.455,499.106C809.455,497.186 808.943,495.674 807.919,494.57C806.895,493.466 805.583,492.914 803.983,492.914C802.383,492.914 801.071,493.466 800.047,494.57C799.023,495.674 798.511,497.186 798.511,499.106C798.511,501.026 799.023,502.538 800.047,503.642C801.071,504.746 802.383,505.298 803.983,505.298Z" style="fill:rgb(25,25,25);fill-rule:nonzero;"/>
                    <path d="M823.327,478.514L832.831,478.514L832.831,504.578L848.863,504.578L848.863,512.114L823.327,512.114L823.327,478.514Z" style="fill:rgb(25,25,25);fill-rule:nonzero;"/>
                    <path d="M852.175,486.098L861.295,486.098L861.295,512.114L852.175,512.114L852.175,486.098ZM856.735,483.218C855.071,483.218 853.727,482.754 852.703,481.826C851.679,480.898 851.167,479.746 851.167,478.37C851.167,476.994 851.679,475.842 852.703,474.914C853.727,473.986 855.071,473.522 856.735,473.522C858.399,473.522 859.743,473.962 860.767,474.842C861.791,475.722 862.303,476.85 862.303,478.226C862.303,479.666 861.791,480.858 860.767,481.802C859.743,482.746 858.399,483.218 856.735,483.218Z" style="fill:rgb(25,25,25);fill-rule:nonzero;"/>
                    <path d="M884.143,485.666C887.375,485.666 889.975,486.626 891.943,488.546C893.911,490.466 894.895,493.362 894.895,497.234L894.895,512.114L885.775,512.114L885.775,498.722C885.775,495.17 884.351,493.394 881.503,493.394C879.935,493.394 878.679,493.906 877.735,494.93C876.791,495.954 876.319,497.49 876.319,499.538L876.319,512.114L867.199,512.114L867.199,486.098L875.887,486.098L875.887,488.93C876.911,487.874 878.127,487.066 879.535,486.506C880.943,485.946 882.479,485.666 884.143,485.666Z" style="fill:rgb(25,25,25);fill-rule:nonzero;"/>
                    <path d="M912.415,502.994L909.727,505.73L909.727,512.114L900.607,512.114L900.607,476.498L909.727,476.498L909.727,495.17L919.039,486.098L929.839,486.098L919.039,497.234L930.751,512.114L919.711,512.114L912.415,502.994Z" style="fill:rgb(25,25,25);fill-rule:nonzero;"/>
                    <path d="M942.127,489.218C943.055,488.034 944.263,487.146 945.751,486.554C947.239,485.962 948.943,485.666 950.863,485.666L950.863,493.874C950.031,493.778 949.343,493.73 948.799,493.73C946.847,493.73 945.319,494.258 944.215,495.314C943.111,496.37 942.559,497.986 942.559,500.162L942.559,512.114L933.439,512.114L933.439,486.098L942.127,486.098L942.127,489.218Z" style="fill:rgb(25,25,25);fill-rule:nonzero;"/>
                    <g transform="matrix(0.165354,0,0,0.165354,787.745,427.41)">
                        <path d="M969.583,478.37C972.751,478.37 975.623,479.106 978.199,480.578C980.775,482.05 982.799,484.074 984.271,486.65C985.743,489.226 986.479,492.082 986.479,495.218C986.479,498.354 985.727,501.226 984.223,503.834C982.719,506.442 980.671,508.498 978.079,510.002C975.487,511.506 972.623,512.258 969.487,512.258C966.351,512.258 963.495,511.506 960.919,510.002C958.343,508.498 956.311,506.45 954.823,503.858C953.335,501.266 952.591,498.418 952.591,495.314C952.591,492.21 953.335,489.362 954.823,486.77C956.311,484.178 958.351,482.13 960.943,480.626C963.535,479.122 966.415,478.37 969.583,478.37ZM979.231,504.386C980.319,503.17 981.151,501.778 981.727,500.21C982.303,498.642 982.591,496.978 982.591,495.218C982.591,492.722 982.039,490.474 980.935,488.474C979.831,486.474 978.287,484.898 976.303,483.746C974.319,482.594 972.079,482.018 969.583,482.018C967.087,482.018 964.839,482.602 962.839,483.77C960.839,484.938 959.279,486.538 958.159,488.57C957.039,490.602 956.479,492.85 956.479,495.314C956.479,497.778 957.039,500.026 958.159,502.058C959.279,504.09 960.831,505.69 962.815,506.858C964.799,508.026 967.023,508.61 969.487,508.61C971.407,508.61 973.191,508.25 974.839,507.53C976.487,506.81 977.903,505.794 979.087,504.482L973.279,504.482L970.063,499.49L967.807,499.49L967.807,504.482L961.903,504.482L961.903,486.146L970.255,486.146C972.815,486.146 974.831,486.746 976.303,487.946C977.775,489.146 978.511,490.77 978.511,492.818C978.511,495.442 977.455,497.314 975.343,498.434L979.231,504.386ZM969.871,495.266C970.735,495.266 971.415,495.05 971.911,494.618C972.407,494.186 972.655,493.586 972.655,492.818C972.655,492.05 972.415,491.45 971.935,491.018C971.455,490.586 970.767,490.37 969.871,490.37L967.807,490.37L967.807,495.266L969.871,495.266Z" style="fill:rgb(25,25,25);fill-rule:nonzero;"/>
                    </g>
                </g>
                <g id="Logomark-Sunstone" serif:id="Logomark Sunstone" transform="matrix(1.23182,0,0,1.23182,-321.576,-377.71)">
                    <rect x="764.33" y="727.595" width="19.708" height="19.708" style="fill:rgb(25,25,25);"/>
                    <g transform="matrix(1,0,0,1,19.708,-19.708)">
                        <rect x="764.33" y="727.595" width="19.708" height="19.708" style="fill:rgb(25,25,25);"/>
                    </g>
                    <g transform="matrix(1,0,0,1,0,19.708)">
                        <rect x="764.33" y="727.595" width="19.708" height="19.708" style="fill:rgb(25,25,25);fill-opacity:0.75;"/>
                    </g>
                    <g transform="matrix(1,0,0,1,39.4159,-19.708)">
                        <rect x="764.33" y="727.595" width="19.708" height="19.708" style="fill:rgb(25,25,25);fill-opacity:0.75;"/>
                    </g>
                    <g transform="matrix(1,0,0,1,19.708,19.708)">
                        <rect x="764.33" y="727.595" width="19.708" height="19.708" style="fill:rgb(25,25,25);"/>
                    </g>
                    <g transform="matrix(1,0,0,1,39.4159,0)">
                        <rect x="764.33" y="727.595" width="19.708" height="19.708" style="fill:rgb(25,25,25);"/>
                    </g>
                </g>
            </g>
        </g>
    </g>
</svg>
