<svg xmlns="http://www.w3.org/2000/svg" data-name="Laag 1" data-sanitized-data-name="Laag 1" viewBox="0 0 236.49 35.14"><path d="M59.4 10.78c3.45 0 4.3 1.44 4.8 4.44v.32h4.9v-.39c-.22-5.52-3.94-8.94-9.69-8.94-6.37 0-10.17 4.31-10.17 11.54S53 29.29 59.4 29.29c5.75 0 9.47-3.43 9.69-8.94V20h-4.84v.31c-.5 3-1.35 4.44-4.8 4.44-3.26 0-5.28-1.16-5.28-7s1.97-6.97 5.23-6.97Zm30.4 2.98c0-4.87-3-7.23-9.31-7.23h-8V29h4.9v-6.82h7.83V29h4.9v-9.39h-4.88C88.3 19 89.8 17 89.8 13.76Zm-4.9.64c0 2.25-.61 3.2-4.41 3.2h-3.1v-6.5h3.1c3.8 0 4.41.98 4.41 3.3Zm16.62.84-4.95-8.71h-5.73l8.23 13.68.07 8.76h4.83v-8.76l8.23-13.68h-5.73l-4.95 8.71zm21-8.71h-8.32V29h4.9v-6.51h3.42c6.35 0 9.31-2.54 9.31-8s-2.96-7.96-9.31-7.96Zm4.41 8c0 2.27-.57 3.43-3.68 3.43h-4.15V11.1h4.15c3.13 0 3.68 1.1 3.68 3.39Zm7.02-3.43h6.19v17.87h4.9V11.1h6.19V6.53h-17.28v4.57zm29.25-4.89c-6.56 0-11 4.63-11 11.54s4.4 11.54 11 11.54 11-4.64 11-11.54-4.44-11.54-11-11.54Zm6.07 11.54c0 4.62-2 7-6.07 7s-6.07-2.34-6.07-7 2.05-7 6.07-7 6.07 2.38 6.07 7Zm20.88-11.22-5.77 8.93h-2.23V6.53h-4.9v22.44h4.9v-8.93h2.23l5.77 8.93h5.89l-7.56-11.22 7.56-11.22h-5.89zm23.69 4.57V6.53h-15.05v22.44h15.05v-4.58h-10.15v-4.51h7.91V15.3h-7.91v-4.2h10.15zm17.75-4.57v13.84l-9.2-13.68-.11-.16h-4.72v22.44h4.89V15.12l9.21 13.69.11.16h4.72V6.53h-4.9zM28.99 22.31l-2.98 5.17H14.57l-5.72-9.91 5.72-9.91h11.44l2.98 5.17h8.85L30.43 0H10.14L0 17.57l10.14 17.57h20.29l7.41-12.83h-8.85z"/></svg>